<svg id="Layer_1" data-name="Layer 1" xmlns="http://www.w3.org/2000/svg" viewBox="0 0 220.22 220.22"><defs><style>.cls-1{fill:#222221;}.cls-2{fill:#fff;}</style></defs><path class="cls-1" d="M113.39,223.5h0A110.11,110.11,0,0,1,3.27,113.39h0A110.11,110.11,0,0,1,113.39,3.28h0A110.11,110.11,0,0,1,223.5,113.39h0A110.11,110.11,0,0,1,113.39,223.5Z" transform="translate(-3.27 -3.28)"/><path class="cls-2" d="M96.61,179.94h26.8V112.82h18.7l2-22.47h-20.7V77.55c0-5.3,1.07-7.4,6.19-7.4h14.51V46.83H125.55c-20,0-28.94,8.78-28.94,25.6V90.35h-14V113.1h14Z" transform="translate(-3.27 -3.28)"/></svg>