<svg id="Layer_1" data-name="Layer 1" xmlns="http://www.w3.org/2000/svg" viewBox="0 0 220.22 220.22"><defs><style>.cls-1{fill:#222221;}</style></defs><path class="cls-1" d="M113.39,223.5A110.11,110.11,0,1,1,223.5,113.38,110.24,110.24,0,0,1,113.39,223.5Zm0-211.87A101.76,101.76,0,1,0,215.15,113.38,101.87,101.87,0,0,0,113.39,11.63Z" transform="translate(-3.28 -3.28)"/><path class="cls-1" d="M97.24,177.42H123V112.84h18l1.92-21.62H123V78.91c0-5.1,1-7.12,5.95-7.12h14V49.35H125.08c-19.18,0-27.84,8.46-27.84,24.63V91.22H83.83v21.89H97.24Z" transform="translate(-3.28 -3.28)"/></svg>