<svg id="Layer_1" data-name="Layer 1" xmlns="http://www.w3.org/2000/svg" viewBox="0 0 220.22 220.22"><defs><style>.cls-1{fill:#222221;}.cls-2{fill:#fff;}</style></defs><path class="cls-1" d="M113.39,223.5h0A110.11,110.11,0,0,1,3.27,113.39h0A110.11,110.11,0,0,1,113.39,3.28h0A110.11,110.11,0,0,1,223.5,113.39h0A110.11,110.11,0,0,1,113.39,223.5Z" transform="translate(-3.27 -3.28)"/><rect class="cls-2" x="60.18" y="85.57" width="22.79" height="73.62"/><path class="cls-2" d="M74.74,79.2A13.59,13.59,0,1,0,61.27,65.61,13.54,13.54,0,0,0,74.74,79.2Z" transform="translate(-3.27 -3.28)"/><path class="cls-2" d="M122.67,123.81c0-10.34,4.77-16.51,13.89-16.51,8.38,0,12.4,5.92,12.4,16.51v38.65h22.69V115.85c0-19.72-11.18-29.26-26.79-29.26a25.67,25.67,0,0,0-22.19,12.17V88.84H100.81v73.62h21.86Z" transform="translate(-3.27 -3.28)"/></svg>