<svg id="Layer_1" data-name="Layer 1" xmlns="http://www.w3.org/2000/svg" viewBox="0 0 220.22 220.22"><defs><style>.cls-1{fill:#222221;}</style></defs><path class="cls-1" d="M113.39,223.5A110.11,110.11,0,1,1,223.5,113.38,110.24,110.24,0,0,1,113.39,223.5Zm0-211.87A101.76,101.76,0,1,0,215.15,113.38,101.87,101.87,0,0,0,113.39,11.63Z" transform="translate(-3.28 -3.28)"/><rect class="cls-1" x="62.08" y="86.5" width="21.92" height="70.83"/><path class="cls-1" d="M76.21,80.5a13.07,13.07,0,1,0-13-13.08A13,13,0,0,0,76.21,80.5Z" transform="translate(-3.28 -3.28)"/><path class="cls-1" d="M122.32,123.42c0-10,4.58-15.89,13.36-15.89,8.06,0,11.94,5.69,11.94,15.89V160.6h21.82V115.75c0-19-10.76-28.14-25.77-28.14a24.7,24.7,0,0,0-21.35,11.7V89.77h-21V160.6h21Z" transform="translate(-3.28 -3.28)"/></svg>