<svg id="Layer_1" data-name="Layer 1" xmlns="http://www.w3.org/2000/svg" viewBox="0 0 220.22 220.22"><defs><style>.cls-1{fill:#222221;}.cls-2{fill:#fff;}</style></defs><path class="cls-1" d="M113.39,223.5h0A110.11,110.11,0,0,1,3.27,113.39h0A110.11,110.11,0,0,1,113.39,3.28h0A110.11,110.11,0,0,1,223.5,113.39h0A110.11,110.11,0,0,1,113.39,223.5Z" transform="translate(-3.27 -3.28)"/><path class="cls-2" d="M78.15,123.62a2.59,2.59,0,0,0,3.76-1.88c.34-1.32,1.17-4.64,1.53-6,.51-1.89.31-2.54-1.08-4.18-3-3.57-5-8.2-5-14.74,0-19,14.2-36,37-36,20.17,0,31.25,12.33,31.25,28.79,0,21.66-9.58,39.94-23.81,39.94-7.86,0-13.74-6.5-11.86-14.46,2.26-9.52,6.63-19.79,6.63-26.66,0-6.15-3.3-11.28-10.13-11.28-8,0-14.48,8.31-14.48,19.44a29,29,0,0,0,2.39,11.89L84.72,149.4c-2.87,12.15-.43,27-.22,28.55a1,1,0,0,0,1.78.43c.74-1,10.31-12.78,13.56-24.59.92-3.34,5.29-20.64,5.29-20.64,2.61,5,10.24,9.36,18.34,9.36,24.16,0,40.54-22,40.54-51.48,0-22.28-18.87-43-47.56-43C80.76,48,62.77,73.59,62.77,94.92,62.77,107.84,67.66,119.34,78.15,123.62Z" transform="translate(-3.27 -3.28)"/></svg>