<svg id="Layer_1" data-name="Layer 1" xmlns="http://www.w3.org/2000/svg" viewBox="0 0 220.22 220.22"><defs><style>.cls-1{fill:#222221;}</style></defs><path class="cls-1" d="M113.39,223.5A110.11,110.11,0,1,1,223.5,113.38,110.24,110.24,0,0,1,113.39,223.5Zm0-211.87A101.76,101.76,0,1,0,215.15,113.38,101.87,101.87,0,0,0,113.39,11.63Z" transform="translate(-3.28 -3.28)"/><path class="cls-1" d="M79.49,123.23a2.49,2.49,0,0,0,3.62-1.81c.33-1.26,1.12-4.46,1.47-5.8.49-1.81.3-2.45-1-4-2.91-3.44-4.77-7.88-4.77-14.18,0-18.26,13.66-34.61,35.58-34.61,19.41,0,30.07,11.86,30.07,27.7,0,20.83-9.22,38.42-22.91,38.42-7.56,0-13.22-6.25-11.41-13.92,2.18-9.16,6.38-19,6.38-25.65,0-5.91-3.17-10.85-9.74-10.85-7.74,0-13.94,8-13.94,18.71a27.89,27.89,0,0,0,2.3,11.44S87.19,142.17,85.81,148c-2.77,11.68-.42,26-.22,27.46a1,1,0,0,0,1.72.42c.71-.94,9.92-12.3,13-23.66.89-3.21,5.09-19.86,5.09-19.86,2.51,4.79,9.85,9,17.65,9,23.24,0,39-21.18,39-49.53,0-21.44-18.16-41.4-45.75-41.4C82,50.48,64.69,75.09,64.69,95.62,64.69,108.05,69.39,119.11,79.49,123.23Z" transform="translate(-3.28 -3.28)"/></svg>